# xmcd
#
# Track frame offsets:
#	150
#	17382
#	32870
#	49437
#	65645
#	79329
#	96400
#	110215
#	127145
#	142915
#	158812
#	177545
#
# Disc length: 2558 seconds
#
# Revision: 0
# Processed by: cddbd v1.5.1PL0 Copyright (c) Steve Scherf et al.
# Submitted via: audiograbber 1.80
#
DISCID=b109fc0c
DTITLE=Zrinka - Dusa duse
DYEAR=1900
DGENRE=
TTITLE0=Sritno srce
TTITLE1=Dusa duse
TTITLE2=Splitski tango
TTITLE3=Budi volja tvoja
TTITLE4=Tako sam ranjiva
TTITLE5=Slavimo ljubav
TTITLE6=Srce od zlata
TTITLE7=Moja jube
TTITLE8=Tvoj mi osmijeh daje krila
TTITLE9=Marine
TTITLE10=A dani bize
TTITLE11=Nima te
EXTD=
EXTT0=
EXTT1=
EXTT2=
EXTT3=
EXTT4=
EXTT5=
EXTT6=
EXTT7=
EXTT8=
EXTT9=
EXTT10=
EXTT11=
PLAYORDER=
